<svg width="33" height="26" viewBox="0 0 33 26" fill="none" xmlns="http://www.w3.org/2000/svg">
<path d="M27.9541 2.09461C25.786 1.10199 23.4971 0.397789 21.146 0C20.8243 0.575145 20.5332 1.16689 20.2739 1.77277C17.7695 1.39538 15.2226 1.39538 12.7182 1.77277C12.4588 1.16695 12.1677 0.575214 11.8461 0C9.49346 0.401149 7.20308 1.10702 5.03276 2.09981C0.724136 8.47449 -0.443865 14.6909 0.140135 20.819C2.66338 22.6832 5.4876 24.1011 8.49005 25.0108C9.16611 24.1015 9.76434 23.1369 10.2784 22.1271C9.30203 21.7625 8.35966 21.3126 7.46221 20.7826C7.6984 20.6113 7.92941 20.4348 8.15263 20.2635C10.764 21.4916 13.6142 22.1283 16.4999 22.1283C19.3857 22.1283 22.2359 21.4916 24.8473 20.2635C25.0731 20.4478 25.3041 20.6243 25.5377 20.7826C24.6385 21.3134 23.6944 21.7642 22.7163 22.1297C23.2297 23.139 23.828 24.1028 24.5046 25.0108C27.5097 24.1047 30.336 22.6876 32.8597 20.8216C33.545 13.7149 31.6891 7.55567 27.9541 2.09461ZM11.0181 17.0502C9.39071 17.0502 8.04621 15.5733 8.04621 13.7565C8.04621 11.9396 9.34399 10.4497 11.0129 10.4497C12.6819 10.4497 14.016 11.9396 13.9874 13.7565C13.9589 15.5733 12.6767 17.0502 11.0181 17.0502ZM21.9818 17.0502C20.3518 17.0502 19.0124 15.5733 19.0124 13.7565C19.0124 11.9396 20.3102 10.4497 21.9818 10.4497C23.6533 10.4497 24.977 11.9396 24.9485 13.7565C24.9199 15.5733 23.6403 17.0502 21.9818 17.0502Z" fill="#5865F2"/>
</svg>
